<?xml version="1.0" encoding="UTF-8" standalone="no"?>
<svg
        version="1.1"
        id="svg2"
        height="40"
        width="40"
        xmlns="http://www.w3.org/2000/svg">
    <defs
            id="defs4"/>
    <metadata
            id="metadata7">
    </metadata>
    <path
            id="path8615"
            d="m 19.870227,2 c -9.139029,0 -8.568331,3.9839837 -8.568331,3.9839837 l 0.01018,4.1273653 h 8.721153 v 1.239232 H 7.8480633 c 0,0 -5.8480633,-0.666696 -5.8480633,8.602948 0,9.269639 5.1043209,8.940917 5.1043209,8.940917 h 3.0462901 v -4.301472 c 0,0 -0.1642019,-5.131044 5.022813,-5.131044 5.187018,0 8.649837,0 8.649837,0 0,0 4.859801,0.07897 4.859801,-4.721377 0,-4.8003486 0,-7.9372414 0,-7.9372414 0,0 0.737852,-4.8033116 -8.812847,-4.8033116 z m -4.80886,2.7754749 c 0.867691,0 1.568993,0.7049716 1.568993,1.5772066 0,0.8722328 -0.701302,1.5772065 -1.568993,1.5772065 -0.867692,0 -1.568992,-0.7049737 -1.568992,-1.5772065 0,-0.872235 0.7013,-1.5772066 1.568992,-1.5772066 z"
            style="color:#000000;display:inline;overflow:visible;visibility:visible;fill:#2a6db2;fill-opacity:1;fill-rule:nonzero;stroke:none;stroke-width:0.204072;marker:none"/>
    <path
            style="color:#000000;display:inline;overflow:visible;visibility:visible;fill:#505050;fill-opacity:1;fill-rule:nonzero;stroke:none;stroke-width:0.204072;marker:none"
            d="m 20.129775,38 c 9.139032,0 8.568329,-3.983982 8.568329,-3.983982 l -0.01018,-4.127367 h -8.721155 v -1.239232 h 12.185165 c 0,0 5.848063,0.666694 5.848063,-8.60295 4e-6,-9.269639 -5.104321,-8.940917 -5.104321,-8.940917 h -3.04629 v 4.301472 c 0,0 0.164206,5.131041 -5.022815,5.131041 -5.187015,0 -8.649834,0 -8.649834,0 0,0 -4.859802,-0.07897 -4.859802,4.721384 0,4.800345 0,7.937239 0,7.937239 0,0 -0.737852,4.803312 8.812848,4.803312 z m 4.80886,-2.775473 c -0.86769,0 -1.568993,-0.704974 -1.568993,-1.577206 0,-0.872235 0.701303,-1.577207 1.568993,-1.577207 0.867692,0 1.568993,0.704972 1.568993,1.577207 4e-6,0.872232 -0.701301,1.577206 -1.568993,1.577206 z"
            id="path8620"/>
</svg>
