<?xml version="1.0" encoding="UTF-8" standalone="no"?>
<svg
        version="1.1"
        id="svg2"
        height="16"
        width="16"
        xmlns="http://www.w3.org/2000/svg">
    <defs
            id="defs4"/>
    <metadata
            id="metadata7">
    </metadata>
    <path
            id="path8615"
            d="M 7.9495333,1 C 4.3954662,1 4.6174043,2.549327 4.6174043,2.549327 l 0.00396,1.6050865 H 8.012923 V 4.6363371 H 3.274247 C 3.274247,4.6363371 1,4.3770664 1,7.9819279 1,11.586788 2.9850138,11.458951 2.9850138,11.458951 H 4.1696823 V 9.7861566 c 0,0 -0.063856,-1.995406 1.9533163,-1.995406 2.0171739,0 3.3638258,0 3.3638258,0 0,0 1.8899226,0.03071 1.8899226,-1.8360911 0,-1.8668022 0,-3.086705 0,-3.086705 C 11.376747,2.8679545 11.66369,1 7.9495286,1 Z M 6.0794209,2.0793514 c 0.3374354,0 0.610164,0.2741556 0.610164,0.6133581 0,0.3392016 -0.2727286,0.6133581 -0.610164,0.6133581 -0.3374358,0 -0.6101636,-0.2741565 -0.6101636,-0.6133581 0,-0.3392025 0.2727278,-0.6133581 0.6101636,-0.6133581 z"
            style="color:#000000;display:inline;overflow:visible;visibility:visible;fill:#6c707e;fill-opacity:1;fill-rule:nonzero;stroke:none;stroke-width:0.0793612;marker:none"/>
    <polygon
            fill="#59a869"
            fill-rule="evenodd"
            points="4,2 14,8 4,14 "
            id="polygon131"
            transform="matrix(1.1096,0,0,1.1096,-1.2194,-0.4482)"/>
    <path
            style="color:#000000;display:inline;overflow:visible;visibility:visible;fill:#6c707e;fill-opacity:1;fill-rule:nonzero;stroke:none;stroke-width:0.0793612;marker:none"
            d="m 8.0504686,15 c 3.5540684,0 3.3321284,-1.549326 3.3321284,-1.549326 l -0.004,-1.605087 H 7.9870774 v -0.481924 h 4.7386756 c 0,0 2.274247,0.25927 2.274247,-3.3455917 2e-6,-3.6048596 -1.985014,-3.4770233 -1.985014,-3.4770233 h -1.184668 v 1.6727947 c 0,0 0.06386,1.9954048 -1.9533174,1.9954048 -2.0171727,0 -3.3638246,0 -3.3638246,0 0,0 -1.8899232,-0.030711 -1.8899232,1.8360935 0,1.866801 0,3.086704 0,3.086704 0,0 -0.2869425,1.867955 3.427219,1.867955 z M 9.920581,13.920649 c -0.337435,0 -0.610164,-0.274156 -0.610164,-0.613357 0,-0.339203 0.272729,-0.613359 0.610164,-0.613359 0.337436,0 0.610164,0.274156 0.610164,0.613359 2e-6,0.339201 -0.272728,0.613357 -0.610164,0.613357 z"
            id="path8620"/>
</svg>
