<?xml version="1.0" encoding="UTF-8" standalone="no"?>
<svg
        version="1.1"
        id="svg2"
        height="20"
        width="20"
        xmlns="http://www.w3.org/2000/svg">
    <defs
            id="defs4"/>
    <metadata
            id="metadata7">
    </metadata>
    <path
            id="path8615"
            d="M 9.9351142,1 C 5.3655994,1 5.6509484,2.9919919 5.6509484,2.9919919 l 0.00509,2.0636826 H 10.016615 V 5.6752906 H 3.9240319 C 3.9240319,5.6752906 1,5.3419425 1,9.9767644 1,14.611585 3.5521606,14.447223 3.5521606,14.447223 h 1.5231452 v -2.150736 c 0,0 -0.082101,-2.5655219 2.5114067,-2.5655219 2.5935095,0 4.3249185,0 4.3249185,0 0,0 2.429901,0.039484 2.429901,-2.3606886 0,-2.4001743 0,-3.9686207 0,-3.9686207 C 14.341532,3.4016558 14.710459,1 9.9351082,1 Z M 7.530684,2.3877375 c 0.4338455,0 0.7844966,0.3524858 0.7844966,0.7886033 0,0.4361163 -0.3506511,0.7886033 -0.7844966,0.7886033 -0.433846,0 -0.784496,-0.352487 -0.784496,-0.7886033 0,-0.4361175 0.35065,-0.7886033 0.784496,-0.7886033 z"
            style="color:#000000;display:inline;overflow:visible;visibility:visible;fill:#ced0d6;fill-opacity:1;fill-rule:nonzero;stroke:none;stroke-width:0.102036;marker:none"/>
    <path
            style="color:#000000;display:inline;overflow:visible;visibility:visible;fill:#ced0d6;fill-opacity:1;fill-rule:nonzero;stroke:none;stroke-width:0.102036;marker:none"
            d="m 10.064888,19 c 4.569517,0 4.284165,-1.991991 4.284165,-1.991991 l -0.0051,-2.063683 H 9.9833852 V 14.32471 h 6.0925828 c 0,0 2.924032,0.333347 2.924032,-4.301475 3e-6,-4.63482 -2.552161,-4.470459 -2.552161,-4.470459 h -1.523144 v 2.150736 c 0,0 0.08211,2.56552 -2.511409,2.56552 -2.5935073,0 -4.3249169,0 -4.3249169,0 0,0 -2.4299012,-0.03948 -2.4299012,2.360692 0,2.400173 0,3.96862 0,3.96862 0,0 -0.3689261,2.401656 4.4064241,2.401656 z m 2.40443,-1.387737 c -0.433845,0 -0.784496,-0.352486 -0.784496,-0.788602 0,-0.436118 0.350651,-0.788604 0.784496,-0.788604 0.433847,0 0.784497,0.352486 0.784497,0.788604 3e-6,0.436116 -0.35065,0.788602 -0.784497,0.788602 z"
            id="path8620"/>
</svg>
