<?xml version="1.0" encoding="UTF-8" standalone="no"?>
<svg
   version="1.1"
   id="svg2"
   height="13"
   width="13"
   xmlns="http://www.w3.org/2000/svg">
  <defs
     id="defs4" />
  <metadata
     id="metadata7">
  </metadata>
  <path
     id="path8615"
     d="M 6.4567428,0.5 C 3.4103996,0.5 3.6006323,1.8279946 3.6006323,1.8279946 l 0.00339,1.3757884 H 6.5110769 V 3.6168604 H 2.4493546 c 0,0 -1.9493546,-0.2222321 -1.9493546,2.8676492 0,3.0898801 1.7014404,2.9803055 1.7014404,2.9803055 H 3.2168705 V 8.0309914 c 0,0 -0.054734,-1.710348 1.6742712,-1.710348 1.7290062,0 2.8832792,0 2.8832792,0 0,0 1.6199337,0.026323 1.6199337,-1.5737924 0,-1.6001162 0,-2.6457471 0,-2.6457471 0,0 0.2459511,-1.6011039 -2.9376158,-1.6011039 z M 4.8537893,1.4251583 c 0.2892304,0 0.5229978,0.2349906 0.5229978,0.5257356 0,0.2907442 -0.2337674,0.5257355 -0.5229978,0.5257355 -0.2892306,0 -0.5229973,-0.2349913 -0.5229973,-0.5257355 0,-0.290745 0.2337667,-0.5257356 0.5229973,-0.5257356 z"
     style="color:#000000;display:inline;overflow:visible;visibility:visible;fill:#ced0d6;fill-opacity:1;fill-rule:nonzero;stroke:none;stroke-width:0.0680239;marker:none" />
  <path
     style="color:#000000;display:inline;overflow:visible;visibility:visible;fill:#ced0d6;fill-opacity:1;fill-rule:nonzero;stroke:none;stroke-width:0.0680239;marker:none"
     d="m 6.5432588,12.5 c 3.0463443,0 2.8561101,-1.327994 2.8561101,-1.327994 L 9.3959389,9.7962174 H 6.4889235 V 9.3831397 h 4.0617215 c 0,0 1.949355,0.2222314 1.949355,-2.86765 C 12.500002,3.42561 10.798559,3.535184 10.798559,3.535184 H 9.7831297 v 1.433824 c 0,0 0.054737,1.710347 -1.674272,1.710347 -1.7290052,0 -2.8832783,0 -2.8832783,0 0,0 -1.6199341,-0.026324 -1.6199341,1.5737944 0,1.6001152 0,2.6457466 0,2.6457466 0,0 -0.2459508,1.601104 2.9376162,1.601104 z m 1.6029535,-0.925158 c -0.28923,0 -0.5229977,-0.234991 -0.5229977,-0.525735 0,-0.290745 0.2337677,-0.525736 0.5229977,-0.525736 0.2892308,0 0.5229977,0.234991 0.5229977,0.525736 1.7e-6,0.290744 -0.2337669,0.525735 -0.5229977,0.525735 z"
     id="path8620" />
</svg>
